#!OML:ASF H:\Male1\Project 1\Capture day 1\Session 1\Male1.ASF
:FULLY-SPECIFIED
:DEGREES
787
root 6.76801 15.5457 -0.000130009 171.436 -65.856 -171.59
lowerback 12.7777 0.617202 -1.78706
upperback 7.08465 0.153624 -0.267817
thorax 0.251927 -0.166235 0.707698
lowerneck -5.03979 -8.63043 -2.2149
upperneck -3.21513 -11.498 7.70415
head 0.458395 -5.7768 2.52816
rclavicle 2.44505e-014 -3.18055e-014
rhumerus -35.6478 29.2689 -91.7469
rradius 49.6611
rwrist -29.8333
rhand -20.0304 2.37775
rfingers 7.12502
rthumb 6.31044 -27.5083
lclavicle 2.44505e-014 -3.18055e-014
lhumerus -30.9734 19.3642 71.9116
lradius 16.286
lwrist -23.2977
lhand -11.6113 15.2697
lfingers 7.12502
lthumb 14.4316 44.748
rfemur -7.43134 1.85429 21.0589
rtibia 28.0704
rfoot -29.696 -31.177
rtoes -3.39381
lfemur -9.96354 -8.03875 -15.1244
ltibia 27.3119
lfoot -18.0301 20.1551
ltoes -8.44288
788
root 6.67953 15.5461 0.045132 171.933 -64.9316 -172.27
lowerback 12.643 0.655999 -2.40717
upperback 6.99486 0.14368 -0.39043
thorax 0.229648 -0.18342 0.930587
lowerneck -5.1557 -8.48177 -2.24329
upperneck -2.9562 -11.3062 7.53317
head 0.540748 -5.67136 2.47275
rclavicle -1.43125e-014 -2.14687e-014
rhumerus -35.6415 29.428 -92.1148
rradius 49.6276
rwrist -29.4994
rhand -19.5246 2.60191
rfingers 7.12502
rthumb 6.79876 -27.2689
lclavicle -1.43125e-014 -2.14687e-014
lhumerus -30.7727 18.4215 72.7204
lradius 16.7071
lwrist -22.1964
lhand -12.7504 15.2128
lfingers 7.12502
lthumb 13.3338 44.7662
rfemur -8.31295 0.848021 20.8248
rtibia 29.7641
rfoot -28.8672 -30.4625
rtoes -4.64639
lfemur -9.10313 -8.25712 -15.7559
ltibia 26.9853
lfoot -18.7336 21.0719
ltoes -6.94185
789
root 6.59547 15.5479 0.0866482 172.432 -63.9776 -172.944
lowerback 12.5545 0.701559 -2.99464
upperback 6.87554 0.145524 -0.53584
thorax 0.152132 -0.191548 1.10998
lowerneck -5.25163 -8.32486 -2.20974
upperneck -2.67929 -11.1063 7.34544
head 0.620389 -5.56265 2.40288
rclavicle 4.96962e-015 -2.38542e-015
rhumerus -35.6729 29.5772 -92.5677
rradius 49.5337
rwrist -29.0793
rhand -19.0863 2.77636
rfingers 7.12502
rthumb 7.22183 -27.0804
lclavicle 4.96962e-015 -2.38542e-015
lhumerus -30.4885 16.5679 73.8954
lradius 17.4241
lwrist -20.2827
lhand -14.2957 14.7383
lfingers 7.12502
lthumb 11.844 44.3834
rfemur -9.26926 -0.122807 20.7075
rtibia 31.4273
rfoot -28.1052 -29.672
rtoes -6.10902
lfemur -8.23441 -8.44008 -16.3916
ltibia 26.5831
lfoot -19.4561 21.9796
ltoes -5.45794
790
root 6.51466 15.5514 0.124227 172.857 -63.0035 -173.527
lowerback 12.453 0.755665 -3.44615
upperback 6.76369 0.171904 -0.729042
thorax 0.0888263 -0.183192 1.16016
lowerneck -5.34765 -8.17894 -2.11173
upperneck -2.39339 -10.9256 7.18602
head 0.702222 -5.46434 2.33084
rclavicle 2.26615e-014 -3.57812e-014
rhumerus -35.6856 29.6227 -93.0929
rradius 49.3911
rwrist -28.6094
rhand -18.7058 2.88309
rfingers 7.12502
rthumb 7.58908 -26.9608
lclavicle 2.26615e-014 -3.57812e-014
lhumerus -30.0856 14.0921 75.2205
lradius 18.3543
lwrist -17.8872
lhand -15.9839 14.0135
lfingers 7.12502
lthumb 10.2156 43.7455
rfemur -10.2539 -1.02734 20.7533
rtibia 32.9697
rfoot -27.3071 -28.8392
rtoes -7.97431
lfemur -7.36499 -8.54618 -16.9869
ltibia 26.1206
lfoot -20.1744 22.8375
ltoes -4.09782
791
root 6.43615 15.5565 0.157477 173.165 -62.0424 -173.962
lowerback 12.3147 0.805932 -3.76159
upperback 6.66187 0.209129 -0.935457
thorax 0.0553975 -0.16618 1.11876
lowerneck -5.43652 -8.04209 -1.99624
upperneck -2.1006 -10.759 7.05972
head 0.787313 -5.37324 2.26659
rclavicle -3.53837e-014 1.59028e-014
rhumerus -35.6945 29.597 -93.6482
rradius 49.2343
rwrist -28.1293
rhand -18.3652 2.90161
rfingers 7.12502
rthumb 7.91789 -26.9301
lclavicle -3.53837e-014 1.59028e-014
lhumerus -29.6102 11.302 76.5543
lradius 19.4581
lwrist -15.2573
lhand -17.5914 13.2571
lfingers 7.12502
lthumb 8.66467 43.0592
rfemur -11.2284 -1.83749 20.9947
rtibia 34.3096
rfoot -26.4206 -28.0377
rtoes -10.4495
lfemur -6.50865 -8.61638 -17.5116
ltibia 25.6064
lfoot -20.8846 23.6536
ltoes -2.86522
